<svg width="328" height="256" viewBox="0 0 328 256" fill="none" xmlns="http://www.w3.org/2000/svg">
<rect width="328" height="256" fill="url(#paint0_radial_2614_126)"/>
<rect width="328" height="256" fill="url(#paint1_radial_2614_126)"/>
<rect width="328" height="256" fill="#DDFEEC"/>
<path d="M236.639 150.139C236.25 138.666 232.645 127.597 224.867 120.388C222.339 118.054 219.392 116.11 216.072 114.689C210.642 112.355 204.674 111.577 198.811 111.787C195.804 111.891 192.827 112.415 189.911 113.103C187.248 113.731 182.282 116.947 180.158 114.18C178.827 112.445 177.316 110.829 175.731 109.289C176.927 108.152 178.124 107.015 179.321 105.893C180.188 105.101 181.445 104.263 181.759 103.036C181.923 102.348 181.938 101.705 181.848 101.062C185.349 98.2201 188.983 99.1026 193.112 99.5812C195.684 99.8804 198.063 99.6111 200.501 98.7436C205.347 97.0234 208.757 92.7605 209.565 87.7496C210.223 83.6661 208.892 79.3433 206.2 76.262C203.044 72.6273 197.913 71.4905 193.261 71.1165C193.785 68.1549 194.233 64.8343 192.274 63.1141C191.137 62.1119 188.176 61.8876 185.857 61.8876C181.504 61.8876 176.778 62.0072 172.769 63.4282C171.737 63.8022 171.139 64.6996 170.78 65.7766C169.463 65.8215 167.878 65.6569 167.055 66.8386C166.218 68.0352 165.993 69.5609 165.829 70.9819C165.664 72.373 165.694 73.8987 166.158 75.2299C166.636 76.636 168.252 77.2193 169.448 77.9074C169.538 78.7749 169.762 79.5228 170.166 80.0613C171.303 81.5272 173.547 82.3498 175.147 83.1426C177.436 84.2644 179.814 85.2367 182.237 86.0594C184.915 86.9568 185.558 87.5103 188.505 86.7474C189.163 86.5829 189.806 86.3137 190.359 85.9547C191.945 84.9226 192.109 81.7964 192.289 79.822C192.798 79.822 193.276 79.8519 193.71 79.9117C195.595 80.181 197.419 80.7942 199.08 81.7216C201.174 82.8734 202.729 85.0572 202.176 87.4953C201.294 91.3544 196.088 92.3865 192.812 92.2669C186.65 92.0275 182.118 91.4741 177.077 95.2584C173.293 94.1964 169.179 98.3098 166.173 100.972C164.782 99.8505 163.361 98.7586 161.895 97.7564C158.918 95.7221 158.574 94.6452 158.963 90.6065C159.187 88.2881 159.157 86.0295 158.888 83.726C158.41 79.6724 156.839 75.7684 154.595 72.373C151.14 67.1228 145.336 63.9069 139.428 62.2765C124.111 58.0434 107.314 65.5971 98.0548 77.9223C91.8174 86.209 91.0396 96.6794 91.7426 104.682C92.1016 108.676 93.0738 112.58 95.0782 116.169C98.1894 121.764 104.367 126.356 110.156 128.734C114.583 130.544 119.549 130.918 124.291 131.023C127.552 131.097 130.708 130.664 133.565 132.414C141.253 137.155 149.255 143.452 154.162 151.231C154.79 152.218 154.82 152.592 154.715 153.878C153.862 164.423 155.897 174.834 163.57 182.866C172.141 191.841 185.363 195.835 197.509 194.728C211.255 193.471 223.326 185.14 230.566 173.577C235.113 166.293 236.923 158.231 236.639 150.139Z" fill="#68182B"/>
<path d="M170.076 70.6083C169.927 71.8348 169.523 73.9738 169.433 75.9781C168.805 75.679 168.177 75.32 167.878 74.8413C167.384 74.0635 167.489 72.7921 167.519 71.9096C167.534 70.9523 167.698 69.995 167.952 69.0676C168.341 67.6017 169.224 67.5868 170.405 67.5419C170.226 68.6488 170.166 69.7706 170.076 70.6083Z" fill="#808080"/>
<path d="M181.729 71.9402C181.31 75.2609 180.861 79.2995 181.445 82.7846C181.624 83.8616 181.609 84.0261 180.637 83.6671C177.63 82.5603 174.684 81.1841 172.036 79.4341C170.525 78.4319 171.528 73.6005 171.662 72.0599C171.797 70.3547 172.021 68.6645 172.38 66.9892C172.739 65.3139 173.307 65.0148 174.938 64.6259C177.421 64.0425 180.038 63.8032 182.656 63.6985C183.793 63.6536 183.868 63.863 183.389 64.7754C182.372 66.6751 182.058 69.2927 181.729 71.9402ZM189.133 84.6992C188.056 85.4022 186.306 85.3275 185.109 85.133C181.878 84.6244 183.09 75.4104 183.314 73.1219C183.509 71.1774 183.928 69.2478 184.376 67.3482C184.945 64.8951 185.543 63.7433 188.086 63.6087C188.101 63.6087 188.116 63.6087 188.146 63.6087C188.161 63.6087 188.176 63.6087 188.19 63.6087C189.941 63.5339 191.945 64.0724 191.975 66.1516C192.005 67.767 191.825 69.4124 191.571 71.0128C187.891 70.9231 185.259 72.4637 186.096 76.6669C186.381 78.0879 187.473 79.0601 188.774 79.5089C189.312 79.6884 189.941 79.7632 190.599 79.7931C190.419 81.229 190.09 84.071 189.133 84.6992Z" fill="#A2603F"/>
<path d="M194.427 93.9876C198.331 93.8828 202.55 91.8187 203.851 87.9446C204.718 85.3569 203.148 82.7542 201.248 81.1238C199.767 79.8524 197.883 79.1644 196.043 78.6259C193.754 77.9677 188.579 78.7306 187.726 76.2027C185.543 69.741 200.082 74.0039 202.639 75.5296C207.231 78.2669 208.742 84.0855 207.575 89.0515C206.244 94.7354 200.321 97.9962 194.846 98.0411C189.716 98.071 185.677 96.2761 181.339 99.3275C181.04 98.6843 180.636 98.086 180.188 97.5026C179.739 96.9342 179.275 96.4705 178.812 96.1116C183.822 92.7161 188.534 94.1371 194.427 93.9876Z" fill="#808080"/>
<path d="M168.836 100.838C171.753 98.1158 175.253 95.1392 178.588 98.2953C179.845 99.4919 180.982 101.84 179.591 103.336C178.484 104.533 177.242 105.64 176.016 106.731C174.49 108.108 174.669 108.242 173.293 107.016C172.097 105.939 170.87 104.892 169.659 103.86C169.434 103.68 169.225 103.486 169 103.291C167.669 102.169 167.535 102.05 168.836 100.838Z" fill="#A2603F"/>
<path d="M155.433 148.195C155.209 149.511 154.91 149.197 154.102 148.09C149.66 142.047 143.542 137.186 137.484 132.938C135.584 131.606 133.505 129.886 131.157 129.527C127.492 128.959 123.633 129.363 119.924 129.094C111.472 128.45 103.799 124.472 98.3843 117.965C95.1235 114.061 93.7624 109.215 93.3884 104.189C94.7645 108.063 97.1279 111.638 100.553 114.614C106.462 119.73 114.389 122.093 122.092 122.243C126.251 122.318 130.11 122.123 133.939 124.068C138.352 126.296 142.151 130.126 145.845 133.342C149.286 136.333 153.713 139.564 155.194 144.051C155.628 145.368 155.583 146.789 155.433 148.195Z" fill="#00EBED"/>
<path d="M229.069 172.711C222.263 184.273 209.878 191.886 196.596 193.083C185.288 194.115 173.501 190.002 165.304 182.164C160.383 177.452 157.795 171.559 156.778 165.262C156.569 163.975 156.778 163.227 157.93 165.321C159.964 169.031 162.537 172.411 165.962 175.223C177.166 184.423 193.903 186.188 207.066 180.429C219.99 174.76 230.849 163.242 233.781 149.302C234.11 147.731 234.828 147.821 234.903 150.064C235.097 157.783 233.317 165.501 229.069 172.711Z" fill="#00EBED"/>
<path d="M231.001 132.414C224.539 114.883 203.449 110.082 187.1 115.706C184.916 116.454 181.401 118.339 179.472 116.08C172.187 107.554 161.986 99.791 160.206 98.6542C158.635 97.6521 156.496 95.4234 156.855 92.4617C157.05 90.936 157.409 89.4253 157.409 88.2586C157.454 83.5917 156.541 78.8351 154.103 74.7965C144.919 59.6293 122.946 60.3922 109.679 69.322C105.67 72.0144 101.99 75.3949 99.1632 79.3437C94.5113 85.8504 92.3723 98.4299 95.6182 105.535C96.8447 108.227 98.6396 110.68 101.048 112.774C104.713 115.96 109.125 118.324 113.867 119.475C118.444 120.582 122.811 120.149 127.433 120.567C135.092 121.27 140.507 126.401 146.101 131.262C149.421 134.164 153.759 137.215 155.853 141.209C157.977 145.263 156.796 151.051 156.87 153.46C157.11 161.253 160.296 168.343 166.518 173.458C180.279 184.766 200.547 184.512 214.712 174.071C227.501 164.648 236.91 148.479 231.001 132.414ZM155.868 105.535C157.858 104.413 158.875 103.845 160.729 105.206C163.212 107.016 165.621 108.945 167.999 110.905C169.644 112.266 171.813 113.657 173.025 115.452C174.117 117.067 169.839 120.134 168.852 120.807C167.251 121.899 166.234 122.632 164.708 121.345C160.819 118.025 156.9 114.734 152.996 111.413C152.862 111.294 152.787 111.174 152.742 111.039C151.366 108.766 153.984 106.582 155.868 105.535ZM135.795 106.447C133.402 105.266 131.547 102.379 129.453 100.733C127.374 99.103 125.818 98.2803 123.335 99.7013C121.839 100.554 120.403 101.496 119.012 102.513C116.903 104.039 114.899 105.864 112.67 107.195C109.334 109.17 104.294 102.842 103.232 100.404C100.838 94.9297 116.29 90.1881 112.7 86.2393C110.052 83.3225 103.411 80.4506 108.183 76.3222C110.875 73.9888 116.2 70.6981 119.566 73.4204C122.393 75.709 125.549 80.9592 129.528 78.8351C132.714 77.1449 135.885 75.4547 139.19 74.0486C140.402 73.5401 141.15 73.4354 142.601 73.9589C146.744 75.4696 153.221 80.7348 149.81 82.4101C146.101 84.2349 141.539 85.6559 138.592 88.6774C136.782 90.5321 144.874 96.3059 146.28 97.7269C149.197 100.674 142.69 104.473 140.581 105.52C139.16 106.223 137.35 107.21 135.795 106.447ZM157.095 124.621C155.823 127.882 153.49 130.469 149.975 128.779C148.075 127.867 144.605 125.877 143.393 123.454C142.541 121.749 142.78 120.223 145.263 119.191C147.656 118.174 151.246 118.084 152.996 118.174C157.02 118.399 158.591 120.762 157.095 124.621ZM226.978 147.955C226.978 147.985 226.963 148.015 226.963 148.03C224.869 156.302 218.646 163.766 212.154 168.717C201.968 176.48 187.683 180.503 176.136 174.445C171.858 172.202 164.574 166.757 162.809 156.571C161.881 151.216 162.824 145.532 165.755 140.267C172.785 127.642 188.297 117.441 203.15 119.072C214.772 120.343 226.574 128.884 227.681 141.239C227.785 143.513 227.531 145.756 226.978 147.955Z" fill="#67D5E8"/>
<path d="M140.715 75.2598C143.124 74.6914 146.579 77.9522 148.045 79.4779C149.047 80.5099 149.122 80.854 147.925 81.3925C146.459 82.0656 144.978 82.7387 143.542 83.4566C142.286 84.0849 141 84.758 139.788 85.5507C140.087 84.3691 140.341 83.1874 140.521 81.9758C140.656 81.0933 140.925 79.6274 140.087 78.9543C138.771 77.8774 136.826 77.7876 134.987 77.997C136.856 77.0098 138.741 76.0525 140.715 75.2598Z" fill="#FAC135"/>
<path d="M131.799 79.8233C133.01 79.4942 134.88 79.0605 135.508 79.0306C136.495 78.9707 137.483 79.0156 138.44 79.21C140.235 79.569 139.592 82.6952 138.963 84.8491C138.889 85.1333 138.799 85.4175 138.709 85.6868C138.35 86.8236 138.051 86.4347 137.647 85.8962C136.002 83.7722 134.012 82.0072 131.694 80.631C131.051 80.2571 130.692 80.1374 131.799 79.8233Z" fill="#FF5671"/>
<path d="M122.123 79.3286C119.46 80.5701 117.232 82.4847 115.108 84.5339C114.569 85.0574 114.255 85.2369 114.285 84.3394C114.375 81.8714 114.644 77.9225 117.142 77.6683C118.563 77.5187 120.448 77.9824 122.078 78.5657C122.676 78.7751 122.751 79.0294 122.123 79.3286Z" fill="#FF5671"/>
<path d="M108.437 78.5657C109.813 76.2472 113.373 74.7963 115.856 74.2129C117.95 73.7193 119.924 75.604 121.674 77.4588C120.941 77.2643 120.209 77.0998 119.461 76.9353C118.339 76.6959 116.918 76.3369 115.841 76.8904C113.507 78.0721 113.358 81.8564 113.238 84.5039C110.83 82.2902 107.39 80.3307 108.437 78.5657Z" fill="#FAC135"/>
<path d="M118.13 101.033C116.545 102.155 112.94 106.163 110.846 105.595C108.303 104.922 105.401 101.706 104.623 99.2677C104.234 98.0412 107.57 95.6928 108.288 95.0497C109.036 94.3766 109.843 93.7633 110.636 93.15C109.305 95.4685 108.123 98.2656 109.395 100.39C110.098 101.571 112.222 101.048 113.239 100.973C115.064 100.838 116.889 100.719 118.713 100.584C118.519 100.749 118.325 100.898 118.13 101.033Z" fill="#FAC135"/>
<path d="M118.413 99.5818C116.409 99.7164 114.389 99.866 112.385 100.001C108.152 100.3 110.635 95.2889 112.25 92.5367C112.654 91.8337 112.789 91.6242 113.357 92.5815C114.3 94.1521 116.334 97.2484 118.697 98.8788C119.445 99.4023 119.595 99.492 118.413 99.5818Z" fill="#FF5671"/>
<path d="M130.767 98.4446C133.115 96.7992 135.299 94.9594 137.318 92.9401C137.916 92.3418 138.096 92.5063 138.335 93.2243C138.634 94.1517 138.784 95.3184 138.814 96.0962C138.889 97.6518 138.47 98.295 136.944 98.5343C135.673 98.7288 134.416 98.9232 133.145 99.1027C132.636 99.1775 131.799 99.2672 131.096 99.2373C130.079 99.1625 130.258 98.8036 130.767 98.4446Z" fill="#FF5671"/>
<path d="M139.131 104.324C136.019 105.879 134.075 102.559 131.936 100.599C131.846 100.51 131.741 100.42 131.637 100.33C132.803 100.166 133.97 100.001 135.137 99.8215C136.304 99.642 137.949 99.6869 138.996 99.0736C140.342 98.2958 140.088 95.9475 139.729 94.1675C141.314 95.6633 143.02 97.0543 144.62 98.5202C146.669 100.42 140.567 103.606 139.131 104.324Z" fill="#FAC135"/>
<path d="M154.791 108.467C155.314 107.824 156.122 107.18 156.915 106.747C158.769 105.715 159.248 106.238 160.205 106.926C161.507 107.869 162.763 108.886 164.005 109.888C165.785 111.309 167.535 112.745 169.27 114.226C170.84 115.572 171.035 116.529 170.182 117.457C169.18 118.533 166.802 120.882 165.934 120.134C164.573 118.967 163.197 117.801 161.821 116.634C159.562 114.704 157.289 112.79 155.015 110.875C154.327 110.277 153.863 109.604 154.791 108.467Z" fill="#FBF199"/>
<path d="M136.527 88.3778C136.647 88.2282 136.782 88.0787 136.916 87.944C137.44 87.3756 137.47 87.3756 137.096 86.8671C135.331 84.4738 133.102 82.5443 130.469 81.1233C129.632 80.6745 130.155 80.495 129.063 80.9887C127.209 81.8412 125.937 81.2429 124.352 80.0613C123.948 79.7621 123.918 79.6275 122.811 80.1211C119.969 81.3776 117.666 83.4567 115.452 85.6256C114.943 86.1192 114.883 86.2089 115.168 86.8521C115.661 87.944 115.542 89.0958 114.255 90.3074C113.657 90.8758 113.657 91.0553 114.076 91.7583C115.646 94.3759 117.651 96.6196 120.074 98.4444C120.657 98.8931 120.986 98.8782 121.599 98.4893C122.841 97.6965 124.127 97.0533 125.324 97.0384C126.446 97.0085 127.508 97.3674 128.495 97.9209C129.303 98.3696 129.348 98.1602 129.931 97.7564C132.324 96.111 134.553 94.2562 136.602 92.192C137.141 91.6536 137.215 91.504 136.797 90.8907C136.228 90.1129 135.884 89.1855 136.527 88.3778ZM130.29 92.0275C128.555 93.8524 125.847 94.8994 123.484 94.675C120.807 94.4208 118.384 91.504 119.311 88.7817C120.298 85.9098 123.694 83.2473 126.835 83.5315C128.42 83.6661 129.991 84.4289 130.978 85.6106C132.354 87.2859 131.801 90.4569 130.29 92.0275Z" fill="#FBF199"/>
<path d="M125.861 93.4786C123.004 94.4509 119.519 92.3269 120.311 89.081C121.269 85.1471 128.119 83.2026 130.318 86.1792C131.53 87.8096 130.722 90.487 128.703 92.0127C127.85 92.6559 126.848 93.1346 125.861 93.4786Z" fill="#FAC135"/>
<path d="M155.628 123.664C155.209 124.965 154.357 126.191 153.414 127.179C152.472 128.136 151.455 127.583 150.408 127.089C149.361 126.58 146.683 125.07 145.397 123.469C144.32 122.138 144.709 121.27 145.98 120.792C147.551 120.193 149.944 120.059 150.916 119.969C152.128 119.849 153.369 119.849 154.566 120.104C156.406 120.463 156.077 122.258 155.628 123.664Z" fill="#FAC135"/>
<path d="M192.289 121.794C205.287 118.04 222.848 124.876 225.66 139.13C226.019 140.97 225.63 141.748 224.583 139.654C218.734 127.942 203.956 121.316 191.107 125.354C177.137 129.737 166.322 143.588 165.799 158.052C165.709 160.535 165.38 160.789 164.692 158.426C164.079 156.272 163.794 153.954 163.914 151.5C164.677 136.917 179.44 125.504 192.289 121.794Z" fill="#00EBED"/>
<path d="M211.869 157.723C210.732 159.069 209.237 160.161 207.711 161.013C204.121 163.003 198.168 161.582 199.17 156.481C200.172 151.351 209.685 146.953 212.737 150.872C214.128 152.652 213.32 155.988 211.869 157.723Z" fill="#FF5671"/>
<path d="M192.396 161.267C191.453 163.795 189.165 165.665 186.832 166.966C186.652 167.071 186.458 167.161 186.263 167.235C182.658 168.686 177.513 167.131 178.44 162.359C178.56 161.776 178.784 161.207 179.083 160.654C182.045 155.643 192.246 152.442 192.71 159.637C192.68 160.19 192.575 160.744 192.396 161.267Z" fill="#FAC135"/>
<path d="M198.346 140.147C199.199 135.764 207.321 132.01 209.938 135.36C211.135 136.886 210.447 139.728 209.19 141.209C208.218 142.361 206.947 143.288 205.645 144.021C202.564 145.726 197.493 144.499 198.346 140.147Z" fill="#FAC135"/>
<path d="M222.953 140.192C217.06 128.779 201.728 122.228 189.672 127.747C178.035 133.072 168.611 143.887 167.534 156.436C166.981 162.823 169.09 167.011 172.276 169.584C178.633 174.744 187.638 176.988 195.76 174.984C206.23 172.396 218.032 164.005 223.252 153.385C224.913 149.989 225.152 144.44 222.953 140.192ZM176.689 145.352C177.437 141.493 181.595 138.128 185.484 137.634C192.514 136.737 193.995 143.049 192.095 146.34C191.183 147.925 189.762 149.346 188.161 150.348C185.125 152.263 180.219 152.712 178.02 149.885C177.063 148.643 176.33 147.207 176.689 145.352ZM191.018 166.533C188.565 168.582 182.687 171.573 178.409 167.744C177.018 166.488 176.21 164.678 176.629 162.479C177.107 159.981 178.843 157.588 181.056 155.928C184.766 153.13 191.048 152.368 193.352 156.122C195.535 159.667 194.444 163.661 191.018 166.533ZM199.469 135.061C204.331 130.544 211.54 131.098 212.513 136.871C212.887 139.04 211.929 141.748 208.683 144.335C206.096 146.384 200.531 147.476 197.809 144.754C195.595 142.54 196.762 137.589 199.469 135.061ZM214.008 157.752C211.974 160.998 208.085 163.601 204.585 163.691C200.636 163.795 196.553 160.909 197.405 156.481C198.243 152.203 202.85 148.494 207.143 147.94C209.82 147.596 212.528 147.925 214.053 150.229C215.758 152.801 215.13 155.957 214.008 157.752Z" fill="#FBF199"/>
<path d="M179.007 145.517C179.65 142.242 184.391 139.28 187.832 139.415C188.744 139.534 189.537 139.923 190.09 140.611C191.257 142.107 190.584 144.874 189.372 146.325C188.43 147.447 187.174 148.359 185.902 149.062C183.943 150.154 181.146 150.005 179.68 148.584C179.051 147.866 178.752 146.834 179.007 145.517Z" fill="#FF5671"/>
<path d="M190.464 141.314C189.881 143.617 188.191 145.562 185.917 146.833C184.047 147.88 181.43 147.791 180.517 145.577C180.128 144.619 180.173 143.722 180.442 142.869C179.724 143.692 179.201 144.59 179.021 145.517C178.767 146.833 179.066 147.865 179.68 148.598C181.145 150.019 183.943 150.154 185.902 149.077C187.173 148.374 188.43 147.461 189.372 146.34C190.404 145.083 191.048 142.854 190.464 141.314Z" fill="#DF3F58"/>
<path d="M212.064 153.968C210.957 156.092 209.132 157.587 207.008 158.59C205.258 159.412 202.984 159.816 201.369 158.5C199.978 157.363 199.813 155.822 200.127 154.282C199.664 154.985 199.32 155.718 199.17 156.481C198.183 161.581 204.121 163.017 207.711 161.013C209.237 160.175 210.732 159.083 211.869 157.722C213.2 156.122 213.993 153.175 213.021 151.335C212.931 152.262 212.467 153.19 212.064 153.968Z" fill="#DF3F58"/>
<path d="M209.923 135.361C209.833 135.241 209.729 135.137 209.624 135.032C209.699 137.754 207.47 140.432 205.062 141.643C203.282 142.541 201.023 142.556 199.737 140.88C199.228 140.207 198.974 139.429 198.929 138.622C198.645 139.115 198.436 139.624 198.331 140.147C197.478 144.5 202.564 145.727 205.63 144.021C206.932 143.303 208.218 142.376 209.175 141.209C210.432 139.729 211.12 136.887 209.923 135.361Z" fill="#EE9E2B"/>
<path d="M190.613 155.958C193.111 159.698 189.461 163.302 185.617 164.619C183.583 165.307 181.294 165.367 180.008 163.377C179.439 162.51 179.245 161.463 179.26 160.401C179.2 160.49 179.155 160.565 179.095 160.655C178.781 161.208 178.557 161.777 178.452 162.36C177.525 167.132 182.655 168.687 186.275 167.236C186.47 167.147 186.664 167.057 186.844 166.967C189.177 165.666 191.465 163.796 192.408 161.268C192.572 160.745 192.692 160.191 192.737 159.653C192.602 157.738 191.795 156.571 190.613 155.958Z" fill="#EE9E2B"/>
<path d="M219.992 135.749C221.652 138.95 222.46 142.615 222.37 146.205C222.146 154.88 215.444 161.91 208.698 166.532C202.491 170.795 195.461 173.473 187.877 173.398C180.338 173.323 172.904 170.017 170.152 162.583C168.656 158.545 168.327 153.968 169.015 149.525C168.253 151.754 167.759 154.057 167.55 156.436C166.996 162.823 169.105 167.011 172.291 169.584C178.648 174.744 187.653 176.988 195.775 174.983C206.245 172.396 218.047 164.004 223.267 153.384C224.928 149.989 225.167 144.425 222.983 140.192C222.131 138.606 221.128 137.125 219.992 135.749Z" fill="#F3AF79"/>
<path d="M223.101 165.455C219.107 169.942 214.156 173.487 208.697 175.97C198.929 180.428 187.427 181.789 177.48 177.152C173.92 175.492 170.689 173.188 167.742 170.616C164.511 167.818 161.879 164.887 160.652 160.698C159.261 155.897 159.605 150.841 159.396 145.92C159.201 141.253 156.838 138.112 153.652 134.911C149.972 131.217 145.874 127.941 141.895 124.59C140.205 123.169 138.575 121.644 136.72 120.432C134.94 119.28 132.876 118.652 130.826 118.248C126.145 117.321 121.268 117.575 116.542 116.932C111.561 116.259 105.533 114.12 101.913 110.53C96.1842 104.846 94.5837 97.0231 96.0645 89.29C97.2013 83.3218 101.255 77.219 105.249 72.6868C102.975 74.6612 100.896 76.8899 99.1458 79.3281C94.5089 85.8497 92.3699 98.4292 95.6158 105.534C96.8423 108.227 98.6373 110.68 101.045 112.774C104.71 115.96 109.123 118.323 113.864 119.475C118.441 120.582 122.809 120.148 127.431 120.567C135.089 121.27 140.504 126.4 146.098 131.262C149.419 134.163 153.757 137.215 155.851 141.208C157.975 145.262 156.793 151.051 156.868 153.459C157.107 161.252 160.293 168.342 166.516 173.458C180.277 184.766 200.545 184.511 214.71 174.071C222.129 168.596 228.411 160.863 231.223 152.188C229.159 156.944 226.676 161.431 223.101 165.455Z" fill="#65B0B9"/>
<path d="M187.099 115.707C184.915 116.455 181.4 118.339 179.471 116.081C172.186 107.555 161.985 99.7917 160.205 98.6549C158.634 97.6528 156.495 95.4241 156.854 92.4624C157.049 90.9367 157.408 89.426 157.408 88.2593C157.453 83.5924 156.54 78.8358 154.102 74.7972C152.113 71.5215 149.54 68.9936 146.578 67.1388C150.572 70.3996 153.369 74.9618 154.715 80.3316C155.598 83.8617 155.508 87.3768 154.85 90.9218C154.521 92.7017 154.177 94.4967 155.119 96.157C155.718 97.219 156.795 97.9968 157.707 98.7746C159.307 100.136 160.953 101.467 162.583 102.813C166.158 105.745 169.703 108.736 173.024 111.967C174.624 113.523 176.165 115.168 177.601 116.888C178.842 118.354 179.68 119.551 181.729 119.611C183.524 119.671 185.364 118.654 186.994 118.025C188.61 117.412 190.3 116.948 191.99 116.574C200.038 114.779 208.803 115.393 216.416 118.609C222.175 121.047 226.752 125.13 230.013 130.156C222.669 114.495 202.73 110.337 187.099 115.707Z" fill="#A6F4FF"/>
<path d="M152.606 124.65C150.946 125.249 149.346 124.351 148.164 123.259C147.252 122.422 146.878 121.509 146.833 120.522C146.534 120.597 146.249 120.687 145.995 120.776C144.724 121.255 144.335 122.123 145.412 123.454C146.698 125.054 149.376 126.565 150.423 127.074C151.47 127.582 152.487 128.136 153.429 127.163C154.371 126.191 155.224 124.965 155.643 123.648C155.837 123.065 156.002 122.392 155.987 121.808C155.134 123.095 153.953 124.172 152.606 124.65Z" fill="#EE9E2B"/>
<path d="M110.813 103.695C107.882 103.695 105.653 100.344 105.459 97.5321C104.875 98.1753 104.486 98.8035 104.636 99.2672C105.414 101.705 108.301 104.921 110.858 105.594C112.758 106.103 115.944 102.812 117.679 101.376C115.48 102.483 113.296 103.695 110.813 103.695Z" fill="#EE9E2B"/>
<path d="M144.619 98.534C144.32 98.2648 144.021 97.9955 143.707 97.7113C143.602 98.3246 143.468 98.908 143.139 99.4913C142.376 100.823 140.715 101.72 139.339 102.273C137.948 102.842 136.497 102.917 135.076 102.438C134.059 102.094 133.207 101.451 132.279 100.942C134.284 102.917 136.183 105.789 139.115 104.323C140.566 103.605 146.669 100.419 144.619 98.534Z" fill="#EE9E2B"/>
<path d="M147.941 81.3925C149.123 80.854 149.063 80.51 148.061 79.4779C147.343 78.745 146.176 77.5932 144.875 76.6808C146.595 79.0142 147.223 80.6147 140.088 84.2943C139.998 84.7132 139.909 85.132 139.804 85.5508C141.016 84.758 142.317 84.0849 143.558 83.4567C144.994 82.7387 146.475 82.0656 147.941 81.3925Z" fill="#EE9E2B"/>
<path d="M113.329 82.9036C112.132 82.0211 110.92 81.1386 110.068 79.8672C108.617 77.7133 111.878 76.2025 113.448 74.976C111.459 75.7538 109.41 76.9504 108.437 78.5808C107.39 80.3309 110.816 82.3053 113.239 84.5191C113.269 83.9956 113.284 83.4571 113.329 82.9036Z" fill="#EE9E2B"/>
<path d="M129.944 85.7759C130.273 86.7931 130.378 87.7803 129.839 88.947C129.136 90.4278 127.551 91.4599 126.01 91.8338C124.365 92.2377 122.704 91.6693 121.807 90.2184C121.119 89.0966 121.268 87.8551 121.777 86.7332C121.074 87.3914 120.535 88.1692 120.311 89.0816C119.518 92.3275 123.018 94.4515 125.86 93.4792C126.848 93.1501 127.835 92.6565 128.702 92.0133C130.722 90.4876 131.514 87.8102 130.318 86.1798C130.213 86.0302 130.079 85.8956 129.944 85.7759Z" fill="#EE9E2B"/>
<path d="M111.534 98.4458C110.741 98.0868 110.457 97.5334 110.247 96.8902C109.754 98.7001 110.038 100.166 112.386 100.001C114.39 99.8668 116.41 99.7172 118.414 99.5826C119.581 99.4928 119.446 99.4031 118.698 98.8796C118.309 98.6103 117.95 98.2962 117.576 97.9671C116.754 98.2663 115.916 98.5206 115.049 98.6702C113.882 98.9095 112.64 98.9394 111.534 98.4458Z" fill="#DF3F58"/>
<path d="M138.829 96.0815C138.829 95.9917 138.814 95.887 138.814 95.7973C138.785 95.8421 138.755 95.887 138.74 95.9319C137.977 97.2482 136.526 97.5473 135.12 97.7268C133.938 97.8764 132.771 97.8465 131.605 97.8465C131.336 98.0409 131.066 98.2503 130.782 98.4448C130.259 98.8038 130.079 99.1628 131.126 99.2226C131.829 99.2525 132.652 99.1628 133.175 99.088C134.447 98.9085 135.703 98.714 136.975 98.5196C138.485 98.2803 138.904 97.6371 138.829 96.0815Z" fill="#DF3F58"/>
<path d="M139.591 80.8106C139.337 81.379 139.038 81.9324 138.649 82.426C137.482 83.9218 135.702 82.1568 134.715 81.6033C133.878 81.1247 132.531 80.3618 131.439 80.4815C131.514 80.5264 131.604 80.5862 131.709 80.646C134.027 82.0072 136.017 83.7872 137.662 85.9112C138.081 86.4497 138.365 86.8386 138.724 85.7018C138.814 85.4325 138.888 85.1483 138.978 84.8641C139.337 83.5927 139.696 81.9922 139.591 80.8106Z" fill="#DF3F58"/>
<path d="M122.183 79.2989C121.24 79.5382 120.328 79.957 119.46 80.3759C118.428 80.8695 117.426 81.4678 116.424 82.0362C115.257 82.6943 114.809 82.0511 114.584 81.1686C114.39 82.2456 114.315 83.3973 114.285 84.3397C114.255 85.2371 114.554 85.0576 115.108 84.5341C117.232 82.4849 119.46 80.5703 122.123 79.3288C122.138 79.3288 122.153 79.3138 122.183 79.2989Z" fill="#DF3F58"/>
<path d="M131.307 95.3188C129.527 96.2014 128.315 96.5155 126.401 95.8573C125.055 95.3936 123.963 95.5582 122.661 96.0817C121.45 96.5603 120.567 96.9792 119.356 95.977C118.862 95.5731 118.488 95.0346 118.054 94.571C116.888 93.2995 115.646 92.058 115.721 90.2332C115.766 89.0366 115.915 87.9147 115.272 87.1519C115.631 88.169 115.437 89.231 114.255 90.3379C113.657 90.9063 113.657 91.0858 114.076 91.7888C115.646 94.4064 117.651 96.6501 120.074 98.4749C120.657 98.9237 120.986 98.9087 121.599 98.5198C122.841 97.727 124.127 97.0839 125.324 97.0689C126.446 97.039 127.508 97.398 128.495 97.9514C129.303 98.4002 129.348 98.1907 129.931 97.7869C131.89 96.4407 133.715 94.9449 135.45 93.3295C134.059 94.0175 132.653 94.6457 131.307 95.3188Z" fill="#F3AF79"/>
<path d="M165.693 117.651C164.152 116.799 162.746 115.393 161.37 114.271C160.039 113.194 158.738 112.102 157.421 111.01C156.898 110.576 156.404 110.113 155.941 109.604C155.477 109.11 155.223 108.632 155.103 108.123C154.998 108.228 154.894 108.348 154.789 108.452C153.861 109.589 154.31 110.262 155.013 110.86C157.272 112.79 159.545 114.705 161.819 116.619C163.195 117.786 164.571 118.953 165.932 120.119C166.8 120.867 169.148 118.564 170.165 117.472C168.685 118.025 167.174 118.474 165.693 117.651Z" fill="#F3AF79"/>
<path d="M173.593 104.697C171.962 104.891 170.332 103.336 168.716 103.052C168.806 103.126 168.896 103.201 169.001 103.291C169.225 103.485 169.434 103.665 169.659 103.859C170.87 104.891 172.097 105.938 173.293 107.015C174.67 108.242 174.49 108.107 176.016 106.731C177.242 105.624 178.484 104.517 179.591 103.336C180.832 102.02 180.069 100 178.992 98.7288C178.484 101.661 176.988 104.308 173.593 104.697Z" fill="#81391C"/>
<path d="M185.721 82.0512C184.36 80.8396 184.031 78.7755 183.867 77.0553C183.597 74.1834 183.897 71.3115 184.106 68.4546C183.762 69.9952 183.448 71.5508 183.298 73.1364C183.074 75.41 181.862 84.6389 185.093 85.1475C186.305 85.3419 188.04 85.4167 189.117 84.7137C189.625 84.3846 189.955 83.4124 190.179 82.3504C188.758 83.1132 187.142 83.3077 185.721 82.0512Z" fill="#81391C"/>
<path d="M181.818 71.1769C181.609 71.6406 181.4 72.0893 181.175 72.5231C180.442 73.959 179.829 75.365 178.617 76.4869C177.092 77.9079 174.624 77.8331 172.918 76.816C172.126 76.3373 171.692 75.5296 171.333 74.662C171.123 76.5766 171.064 78.7904 172.036 79.4336C174.683 81.1836 177.63 82.5598 180.637 83.6666C181.609 84.0256 181.624 83.8611 181.444 82.7841C180.861 79.299 181.31 75.2603 181.729 71.9397C181.758 71.6854 181.788 71.4311 181.818 71.1769Z" fill="#81391C"/>
<path d="M206.634 79.8979C207.217 81.6629 207.427 83.5625 207.352 85.4023C207.172 89.7999 205.078 93.2253 201.399 95.3493C198.108 97.2489 193.785 96.8002 190.21 96.4412C186.785 96.0972 183.793 96.2168 180.592 98.0267C180.876 98.4455 181.146 98.8644 181.355 99.2981C185.693 96.2318 189.746 98.0417 194.862 98.0118C200.337 97.9819 206.26 94.7061 207.591 89.0221C208.279 86.0156 207.995 82.68 206.634 79.8979Z" fill="#515151"/>
<path d="M200.368 78.8799C198.079 77.3692 195.237 77.1298 192.59 76.8905C191.288 76.7708 190.002 76.5614 188.805 76.008C188.177 75.7238 187.788 75.3648 187.504 74.946C187.489 75.3199 187.549 75.7238 187.713 76.2024C188.566 78.7303 193.741 77.9675 196.03 78.6256C197.87 79.1641 199.754 79.8522 201.235 81.1236C202.686 82.38 203.943 84.1899 204.062 86.1494C204.526 83.3972 202.881 80.5402 200.368 78.8799Z" fill="#515151"/>
<path d="M170.061 70.6831C169.418 72.7473 168.715 74.1683 167.489 73.4952C167.518 73.9888 167.623 74.4674 167.862 74.8414C168.177 75.32 168.805 75.6641 169.418 75.9782C169.508 74.0037 169.912 71.9097 170.061 70.6831Z" fill="#515151"/>
<path d="M175.133 98.2058C173.562 98.3105 171.288 99.5072 170.675 101.033C170.077 102.514 172.814 102.618 173.517 102.469C174.28 102.304 175.716 101.87 176.584 101.167C177.855 100.105 178.005 98.0114 175.133 98.2058Z" fill="#F5995A"/>
<path d="M174.909 66.391C173.952 67.3633 173.668 68.6497 173.459 70.0258C173.309 71.028 173.144 72.5836 173.548 73.6605C174.057 75.0217 175.134 75.2311 176.345 73.7353C177.512 72.2994 178.948 69.936 179.367 69.1134C179.875 68.1112 180.399 66.5855 179.98 65.9273C179.367 64.9102 176.465 64.8055 174.909 66.391Z" fill="#F5995A"/>
<path d="M205.542 152.219C201.548 154.627 203.687 157.664 207.486 155.166C208.204 154.702 209.042 153.999 209.535 153.266C211.091 150.977 208.653 150.334 205.542 152.219Z" fill="#FF9780"/>
<path d="M184.707 141.568C181.387 143.199 182.867 145.742 186.038 144.036C186.637 143.707 187.355 143.229 187.788 142.675C189.165 140.97 187.295 140.297 184.707 141.568Z" fill="#FF9780"/>
<path d="M184.541 157.798C179.65 160.266 183.449 163.706 187.248 160.685C190.629 157.977 188.176 155.973 184.541 157.798Z" fill="#FBE134"/>
<path d="M203.896 136.422C199.348 138.726 202.879 141.927 206.409 139.1C209.565 136.602 207.276 134.717 203.896 136.422Z" fill="#FBE134"/>
<path d="M163.914 151.501C163.779 153.954 164.064 156.258 164.692 158.427C165.365 160.79 165.709 160.521 165.799 158.053C165.993 152.907 167.489 147.836 169.957 143.244C170.181 142.526 170.69 136.768 177.481 129.274C170.137 134.793 164.393 142.541 163.914 151.501Z" fill="#00AFB3"/>
<path d="M234.771 154.642C232.063 165.89 224.121 182.673 204.915 188.865C194.714 192.156 184.094 191.199 174.566 186.382C169.271 183.705 163.706 179.771 159.862 174.85C161.223 177.497 163.003 179.965 165.322 182.179C173.519 190.017 185.32 194.13 196.613 193.098C209.896 191.887 222.281 184.288 229.087 172.726C232.482 166.922 234.292 160.819 234.771 154.642Z" fill="#00AFB3"/>
<path d="M154.101 148.09C154.579 148.733 154.878 149.092 155.088 149.032C154.49 147.163 153.607 145.398 152.725 144.111C150.301 140.611 146.726 137.889 143.525 135.122C141.013 132.953 138.395 130.889 135.732 128.899C132.741 126.656 129.63 127.314 126.07 127.314C113.146 127.314 100.402 123.32 94.6882 111.114C95.481 113.582 96.6776 115.901 98.3828 117.95C103.798 124.442 111.486 128.435 119.922 129.079C123.632 129.363 127.476 128.944 131.155 129.512C133.504 129.871 135.583 131.607 137.483 132.923C143.54 137.171 149.673 142.047 154.101 148.09Z" fill="#00AFB3"/>
<defs>
<radialGradient id="paint0_radial_2614_126" cx="0" cy="0" r="1" gradientUnits="userSpaceOnUse" gradientTransform="translate(-21.4135 -30.4303) rotate(49.8569) scale(584.157 1065.59)">
<stop offset="0.304808" stop-color="#FFE6FE"/>
<stop offset="1" stop-color="#D3AFF8"/>
</radialGradient>
<radialGradient id="paint1_radial_2614_126" cx="0" cy="0" r="1" gradientUnits="userSpaceOnUse" gradientTransform="translate(-81.9151 -65.9321) rotate(38.6468) scale(636.917 1323.51)">
<stop offset="0.0334007" stop-color="#74FFA3"/>
<stop offset="0.372875" stop-color="#D7FFE2"/>
<stop offset="0.646099" stop-color="#DDF8E5"/>
<stop offset="0.833354" stop-color="#81E5B1"/>
<stop offset="1" stop-color="#00AD43"/>
</radialGradient>
</defs>
</svg>
