<svg width="20" height="20" viewBox="0 0 20 20" fill="none" xmlns="http://www.w3.org/2000/svg">
<g clip-path="url(#clip0_1534_14644)">
<path d="M8.33333 19.8889C3.61111 19.0556 0 14.9444 0 10C0 4.5 4.5 0 10 0C15.5 0 20 4.5 20 10C20 14.9444 16.3889 19.0556 11.6667 19.8889L11.1111 19.4444H8.88889L8.33333 19.8889Z" fill="#1A74E5"/>
<path d="M13.8889 12.7778L14.3334 10H11.6667V8.05558C11.6667 7.27781 11.9445 6.66669 13.1667 6.66669H14.4445V4.11114C13.7223 4.00003 12.9445 3.88892 12.2223 3.88892C9.94449 3.88892 8.33337 5.2778 8.33337 7.77781V10H5.83337V12.7778H8.33337V19.8334C8.88893 19.9445 9.44449 20 10 20C10.5556 20 11.1112 19.9445 11.6667 19.8334V12.7778H13.8889Z" fill="white"/>
</g>
<defs>
<clipPath id="clip0_1534_14644">
<rect width="20" height="20" fill="white"/>
</clipPath>
</defs>
</svg>
