<?xml version="1.0" encoding="UTF-8"?>
<svg viewBox="0 0 20 20" xmlns="http://www.w3.org/2000/svg">
<path d="m17.207 2.2285-6.2461 4.639 1.155-2.737 5.0911-1.9021z" fill="#E2761B"/>
<path d="m17.234 2.2135c0.0075 0.01373 0.0037 0.03087-0.0088 0.04019l-6.2461 4.639c-0.0114 0.00844-0.027 0.00823-0.0381-5.1e-4s-0.015-0.02385-0.0095-0.03689l1.155-2.737c0.0034-0.00795 0.0099-0.01417 0.018-0.0172l5.091-1.9021c0.0146-0.00547 0.0311 6.7e-4 0.0385 0.01441zm-5.0949 1.9417-1.1051 2.6185 5.9758-4.4382-4.8707 1.8197z" clip-rule="evenodd" fill="#E2761B" fill-rule="evenodd"/>
<path d="m2.7869 2.2285 6.1958 4.683-1.0986-2.7809-5.0973-1.9021z" fill="#E4761B"/>
<path d="m2.7595 2.2134c0.0075-0.01366 0.02389-0.01975 0.03849-0.0143l5.0973 1.9021c0.00833 0.00311 0.01495 0.00961 0.01822 0.01788l1.0986 2.7809c0.00517 0.01308 1e-3 0.028-0.0102 0.03652-0.0112 0.00851-0.02669 0.00853-0.03791 5e-5l-6.1959-4.683c-0.01243-0.0094-0.01609-0.02649-0.00859-0.04015zm0.21787 0.11964 5.9352 4.486-1.0523-2.6639-4.8829-1.8221z" clip-rule="evenodd" fill="#E4761B" fill-rule="evenodd"/>
<path d="m14.959 12.982-1.6635 2.5487 3.5593 0.9793 1.0232-3.4715-2.919-0.0565z" fill="#E4761B"/>
<path d="m14.932 12.965c6e-3 -0.0091 0.0161-0.0145 0.0269-0.0143l2.9191 0.0565c0.0097 2e-4 0.0189 5e-3 0.0247 0.0129s0.0075 0.018 0.0048 0.0274l-1.0233 3.4715c-0.0048 0.0164-0.0219 0.0259-0.0384 0.0213l-3.5593-0.9792c-0.0097-0.0027-0.0175-0.0098-0.021-0.0192-0.0036-0.0094-0.0025-0.0199 3e-3 -0.0283l1.6635-2.5486zm0.0431 0.0488-1.6305 2.4981 3.4881 0.9597 1.0029-3.4024-2.8605-0.0554z" clip-rule="evenodd" fill="#E4761B" fill-rule="evenodd"/>
<path d="m2.1279 13.038 1.017 3.4715 3.5593-0.9793-1.6635-2.5487-2.9127 0.0565z" fill="#E4761B"/>
<path d="m5.04 12.95c0.01081-2e-4 0.02098 0.0052 0.02689 0.0143l1.6635 2.5486c0.00548 0.0084 0.00662 0.0189 0.00307 0.0283s-0.01136 0.0165-0.02103 0.0192l-3.5593 0.9792c-0.01652 0.0046-0.03363-5e-3 -0.03845-0.0214l-1.017-3.4715c-0.00275-0.0093-9.7e-4 -0.0195 0.00482-0.0273 0.00579-0.0079 0.01492-0.0127 0.02469-0.0129l2.9128-0.0565zm-2.8705 0.1185 0.99672 3.4024 3.4881-0.9597-1.6305-2.4981-2.8543 0.0554z" clip-rule="evenodd" fill="#E4761B" fill-rule="evenodd"/>
<path d="m6.5031 8.6755-0.99184 1.5003 3.5342 0.157-0.12555-3.7979-2.4168 2.1406z" fill="#E4761B"/>
<path d="m8.9322 6.506c0.01117 0.0048 0.01855 0.01563 0.01896 0.02779l0.12555 3.7978c2.8e-4 0.0088-0.00309 0.0172-0.00931 0.0234-0.00622 0.0061-0.01472 0.0094-0.02346 9e-3l-3.5342-0.1569c-0.01129-5e-4 -0.02144-7e-3 -0.02657-0.0171-0.00514-0.0101-0.00445-0.0221 0.00178-0.0316l0.99184-1.5003c0.00151-0.00229 0.00332-0.00437 0.00537-0.00619l2.4168-2.1406c0.0091-0.00806 0.02204-0.01014 0.03322-0.00533zm-2.4053 2.1902-0.95902 1.4506 3.445 0.153-0.12222-3.6972-2.3638 2.0936z" clip-rule="evenodd" fill="#E4761B" fill-rule="evenodd"/>
<path d="m13.49 8.6755-2.4482-2.1846-0.0816 3.8418 3.5279-0.157-0.9981-1.5003z" fill="#E4761B"/>
<path d="m11.029 6.4622c0.0112-0.00489 0.0243-0.00279 0.0334 0.00536l2.4482 2.1846c2e-3 0.00178 0.0038 0.00381 0.0052 0.00604l0.9982 1.5003c0.0062 0.0094 0.0069 0.0215 0.0018 0.0316s-0.0153 0.0166-0.0266 0.0171l-3.5279 0.157c-0.0087 3e-4 -0.0171-0.0029-0.0233-9e-3 -0.0062-6e-3 -0.0097-0.0144-0.0095-0.0231l0.0816-3.8418c3e-4 -0.01225 0.0076-0.02323 0.0189-0.02812zm0.0424 0.09756-0.0794 3.7402 3.4389-0.153-0.9651-1.4507-2.3944-2.1365z" clip-rule="evenodd" fill="#E4761B" fill-rule="evenodd"/>
<path d="m6.7039 15.53 2.1218-1.0358-1.833-1.4312-0.28876 2.467z" fill="#E4761B"/>
<path d="m6.9804 13.034c0.01046-0.0044 0.02247-0.0027 0.03141 0.0042l1.833 1.4313c0.00853 0.0067 0.01303 0.0172 0.0119 0.028s-0.00772 0.0202-0.01744 0.0249l-2.1218 1.0358c-0.01031 5e-3 -0.02255 0.0041-0.03192-0.0026-0.00936-0.0066-0.01436-0.0178-0.01302-0.0292l0.28876-2.4671c0.00132-0.0112 0.00861-0.0209 0.01908-0.0253zm0.03678 0.0881-0.2756 2.3545 2.025-0.9885-1.7494-1.366z" clip-rule="evenodd" fill="#E4761B" fill-rule="evenodd"/>
<path d="m11.168 14.495 2.128 1.0358-0.295-2.467-1.833 1.4312z" fill="#E4761B"/>
<path d="m13.012 13.034c0.0104 0.0043 0.0177 0.014 0.0191 0.0252l0.295 2.4671c0.0014 0.0114-0.0036 0.0226-0.013 0.0293-0.0093 0.0066-0.0216 0.0077-0.0319 0.0026l-2.1281-1.0357c-0.0097-0.0048-0.0163-0.0142-0.0174-0.025-0.0012-0.0108 0.0033-0.0213 0.0119-0.028l1.833-1.4313c0.0089-0.0069 0.0209-0.0086 0.0314-0.0042zm-1.7862 1.454 2.0311 0.9886-0.2816-2.3546-1.7495 1.366z" clip-rule="evenodd" fill="#E4761B" fill-rule="evenodd"/>
<path d="m13.296 15.53-2.128-1.0357 0.1695 1.3873-0.0189 0.5838 1.9774-0.9354z" fill="#D7C1B3"/>
<path d="m11.15 14.469c0.0094-0.0067 0.0217-0.0077 0.032-0.0027l2.1281 1.0358c0.0108 0.0053 0.0177 0.0164 0.0176 0.0284-1e-4 0.0121-7e-3 0.0231-0.018 0.0282l-1.9774 0.9354c-0.0098 0.0046-0.0215 0.0038-0.0306-0.0022s-0.0145-0.0163-0.0141-0.0272l0.0187-0.5814-0.1692-1.3849c-0.0014-0.0114 0.0036-0.0227 0.0129-0.0294zm0.0564 0.079 0.1625 1.3301c2e-4 0.0016 3e-4 0.0032 2e-4 0.0048l-0.0172 0.5324 1.8719-0.8854-2.0174-0.9819z" clip-rule="evenodd" fill="#D7C1B3" fill-rule="evenodd"/>
<path d="m6.7046 15.53 1.9774 0.9354-0.01255-0.5838 0.15693-1.3873-2.1218 1.0357z" fill="#D7C1B3"/>
<path d="m8.8444 14.469c0.00936 0.0066 0.01438 0.0178 0.01309 0.0292l-0.1567 1.3852 0.01251 0.5817c2.3e-4 0.0109-0.00518 0.0211-0.0143 0.027-0.00913 0.0059-0.02067 0.0067-0.0305 0.0021l-1.9774-0.9354c-0.01091-0.0051-0.01789-0.0161-0.01796-0.0282-8e-5 -0.012 0.00677-0.0231 0.01761-0.0284l2.1218-1.0357c0.0103-0.0051 0.02251-0.0041 0.03187 0.0025zm-2.0674 1.061 1.8725 0.8857-0.01147-0.533c-3e-5 -0.0014 4e-5 -0.0028 2e-4 -0.0042l0.15051-1.3305-2.0117 0.982z" clip-rule="evenodd" fill="#D7C1B3" fill-rule="evenodd"/>
<path d="m8.7134 12.147-1.7702-0.5211 1.2492-0.5712 0.52103 1.0923z" fill="#233447"/>
<path d="m8.1792 11.026c0.01559-0.0071 0.03401-4e-4 0.04139 0.0151l0.52103 1.0923c0.00533 0.0111 0.00359 0.0244-0.00445 0.0338-0.00803 0.0095-0.02086 0.0133-0.03274 0.0098l-1.7702-0.521c-0.01257-0.0037-0.02152-0.0149-0.02245-0.0279-9.3e-4 -0.0131 0.00634-0.0254 0.01826-0.0308l1.2492-0.5713zm-1.1467 0.5934 1.6222 0.4775-0.47746-1.0009-1.1447 0.5234z" clip-rule="evenodd" fill="#233447" fill-rule="evenodd"/>
<path d="m11.28 12.147 0.521-1.0923 1.2555 0.5712-1.7765 0.5211z" fill="#233447"/>
<path d="m11.773 11.041c0.0074-0.0155 0.0258-0.0222 0.0413-0.0151l1.2555 0.5713c0.012 0.0054 0.0193 0.0177 0.0183 0.0308-9e-4 0.013-0.0098 0.0242-0.0224 0.0279l-1.7766 0.521c-0.0118 0.0035-0.0247-4e-4 -0.0327-0.0098s-0.0097-0.0227-0.0044-0.0338l0.521-1.0923zm0.0434 0.0548-0.4775 1.0011 1.6281-0.4775-1.1506-0.5236z" clip-rule="evenodd" fill="#233447" fill-rule="evenodd"/>
<path d="m6.7045 15.53 0.30132-2.5487-1.9648 0.0565 1.6635 2.4922z" fill="#CD6116"/>
<path d="m7.0289 12.961c0.00615 0.0068 0.00908 0.0159 0.00801 0.0249l-0.30132 2.5487c-0.00154 0.013-0.01106 0.0237-0.02385 0.0268-0.01278 0.0031-0.02613-0.0022-0.03343-0.0131l-1.6635-2.4922c-0.00634-0.0094-0.00702-0.0216-0.00178-0.0318 0.00524-0.0101 0.01557-0.0166 0.02699-0.017l1.9648-0.0564c0.00912-3e-4 0.01791 0.0034 0.02407 0.0101zm-1.9304 0.1075 1.5848 2.3741 0.28705-2.428-1.8718 0.0539z" clip-rule="evenodd" fill="#CD6116" fill-rule="evenodd"/>
<path d="m12.994 12.982 0.3013 2.5487 1.6635-2.4922-1.9648-0.0565z" fill="#CD6116"/>
<path d="m12.971 12.961c0.0062-0.0067 0.015-0.0104 0.0241-0.0101l1.9648 0.0564c0.0114 4e-4 0.0218 0.0069 0.027 0.017 0.0053 0.0102 0.0046 0.0224-0.0018 0.0318l-1.6635 2.4922c-0.0073 0.0109-0.0206 0.0162-0.0334 0.0131s-0.0223-0.0138-0.0239-0.0268l-0.3013-2.5487c-0.0011-9e-3 0.0019-0.0181 8e-3 -0.0249zm0.0586 0.0536 0.2871 2.428 1.5847-2.3741-1.8718-0.0539z" clip-rule="evenodd" fill="#CD6116" fill-rule="evenodd"/>
<path d="m14.489 10.176-3.5279 0.1569 0.3264 1.8142 0.5211-1.0923 1.2554 0.5713 1.425-1.4501z" fill="#CD6116"/>
<path d="m14.517 10.163c0.0052 0.0118 0.0027 0.0256-0.0063 0.0348l-1.425 1.4501c-0.0092 0.0094-0.0234 0.012-0.0354 0.0066l-1.2274-0.5585-0.5078 1.0644c-0.0058 0.0123-0.019 0.0194-0.0325 0.0176s-0.0243-0.0121-0.0267-0.0255l-0.3264-1.8142c-0.0016-0.0089 7e-4 -0.0181 0.0064-0.0252 0.0056-7e-3 0.014-0.0113 0.0231-0.0117l3.5279-0.157c0.0129-5e-4 0.0248 0.0068 0.0301 0.0186zm-3.5194 0.1995 0.3028 1.6829 0.4791-1.0043c0.0074-0.0154 0.0258-0.0221 0.0413-0.015l1.2355 0.5621 1.3537-1.3775-3.4124 0.1518z" clip-rule="evenodd" fill="#CD6116" fill-rule="evenodd"/>
<path d="m6.943 11.626 1.2555-0.5713 0.51476 1.0923 0.3327-1.8142-3.5342-0.1569 1.4313 1.4501z" fill="#CD6116"/>
<path d="m5.4829 10.163c0.00524-0.0118 0.01718-0.0192 0.03008-0.0187l3.5342 0.157c0.00906 4e-4 0.01751 0.0047 0.02316 0.0118s0.00796 0.0163 0.00632 0.0252l-0.33271 1.8142c-0.00246 0.0134-0.01329 0.0237-0.02681 0.0254-0.01353 0.0018-0.02664-0.0054-0.03245-0.0177l-0.50155-1.0643-1.2273 0.5585c-0.01198 0.0054-0.02609 0.0028-0.03533-0.0066l-1.4313-1.4501c-0.00907-0.0091-0.01158-0.0229-0.00634-0.0347zm0.10724 0.0476 1.3596 1.3775 1.2356-0.5621c0.01563-0.0071 0.03407-4e-4 0.04139 0.0152l0.47311 1.0039 0.30859-1.6827-3.4183-0.1518z" clip-rule="evenodd" fill="#CD6116" fill-rule="evenodd"/>
<path d="m5.5117 10.176 1.4815 2.8876-0.05022-1.4375-1.4313-1.4501z" fill="#E4751F"/>
<path d="m5.4932 10.15c0.01256-0.0091 0.02986-0.0077 0.04074 0.0033l1.4313 1.4501c0.00553 0.0057 0.00875 0.0131 0.00903 0.021l0.05022 1.4375c5.1e-4 0.0147-0.00924 0.0278-0.02347 0.0315s-0.02912-3e-3 -0.03583-0.016l-1.4815-2.8877c-0.00707-0.0138-0.00303-0.0306 0.00952-0.0397zm0.1396 0.1929 1.324 2.5807-0.04488-1.2848-1.2791-1.2959z" clip-rule="evenodd" fill="#E4751F" fill-rule="evenodd"/>
<path d="m13.064 11.626-0.0628 1.4375 1.4878-2.8876-1.425 1.4501z" fill="#E4751F"/>
<path d="m14.507 10.15c0.0126 0.0091 0.0166 0.026 0.0095 0.0398l-1.4877 2.8876c-0.0068 0.0131-0.0217 0.0198-0.036 0.016-0.0142-0.0038-0.0239-0.017-0.0233-0.0317l0.0628-1.4376c3e-4 -0.0077 0.0035-0.0151 9e-3 -0.0206l1.4249-1.4501c0.0109-0.0111 0.0283-0.0125 0.0408-0.0034zm-1.4125 1.4889-0.056 1.2826 1.3274-2.5764-1.2714 1.2938z" clip-rule="evenodd" fill="#E4751F" fill-rule="evenodd"/>
<path d="m9.0458 10.333-0.33271 1.8142 0.41432 2.1406 0.09416-2.8186-0.17577-1.1362z" fill="#E4751F"/>
<path d="m9.0462 10.301c0.01532 2e-4 0.02824 0.0114 0.03058 0.0266l0.17577 1.1362c3e-4 0.0019 4.2e-4 0.0039 3.5e-4 0.0058l-0.09416 2.8186c-5.3e-4 0.016-0.01297 0.029-0.0289 0.0303-0.01592 0.0012-0.03025-0.0097-0.03329-0.0254l-0.41431-2.1406c-7.4e-4 -0.0038-7.6e-4 -0.0078-5e-5 -0.0116l0.3327-1.8142c0.00276-0.015 0.016-0.0259 0.03131-0.0257zm-0.3012 1.8454 0.36029 1.8615 0.08477-2.5374-0.14692-0.9498-0.29814 1.6257z" clip-rule="evenodd" fill="#E4751F" fill-rule="evenodd"/>
<path d="m10.961 10.333-0.1695 1.1299 0.0753 2.8249 0.4206-2.1406-0.3264-1.8142z" fill="#E4751F"/>
<path d="m10.96 10.301c0.0153-2e-4 0.0286 0.0107 0.0313 0.0258l0.3265 1.8142c7e-4 0.0038 6e-4 0.0078-1e-4 0.0116l-0.4206 2.1406c-0.0031 0.0157-0.0175 0.0266-0.0334 0.0253-0.016-0.0014-0.0284-0.0145-0.0288-0.0305l-0.0753-2.8248c-1e-4 -0.0019 0-0.0037 3e-4 -0.0055l0.1695-1.13c0.0023-0.0152 0.0152-0.0265 0.0306-0.0267zm0.0033 0.2242-0.1409 0.939 0.0677 2.5389 0.3648-1.8568-0.2916-1.6211z" clip-rule="evenodd" fill="#E4751F" fill-rule="evenodd"/>
<path d="m11.287 12.147-0.4205 2.1406 0.3013 0.2072 1.833-1.4313 0.0628-1.4375-1.7766 0.521z" fill="#F6851B"/>
<path d="m13.083 11.601c0.0079 0.0062 0.0124 0.0159 0.012 0.026l-0.0628 1.4376c-4e-4 0.0092-0.0048 0.0177-0.0121 0.0234l-1.833 1.4312c-0.0108 0.0084-0.0258 0.0089-0.0371 0.0011l-0.3013-0.2071c-0.0103-0.0071-0.0154-0.0196-0.013-0.0319l0.4206-2.1407c0.0022-0.0114 0.0107-0.0207 0.0219-0.024l1.7766-0.521c0.0097-0.0029 0.0202-9e-4 0.0282 0.0054zm-1.7688 0.5705-0.4129 2.1016 0.2653 0.1825 1.8035-1.4082 0.0602-1.3793-1.7161 0.5034z" clip-rule="evenodd" fill="#F6851B" fill-rule="evenodd"/>
<path d="m6.9431 11.626 0.05022 1.4375 1.833 1.4313 0.30132-0.2072-0.41431-2.1406-1.7702-0.521z" fill="#F6851B"/>
<path d="m6.9238 11.601c0.00797-0.0062 0.01843-0.0082 0.0281-0.0053l1.7702 0.521c0.01125 0.0033 0.01972 0.0126 0.02195 0.0241l0.41431 2.1407c0.00237 0.0122-0.00274 0.0247-0.01303 0.0318l-0.30132 0.2071c-0.01129 0.0078-0.0263 0.0073-0.0371-0.0011l-1.833-1.4312c-0.00731-0.0058-0.01173-0.0144-0.01205-0.0237l-0.05022-1.4375c-3.5e-4 -0.0101 0.00416-0.0197 0.01213-0.0259zm0.05213 0.0672 0.04819 1.3794 1.8033 1.4081 0.26541-0.1825-0.40677-2.1017-1.7102-0.5033z" clip-rule="evenodd" fill="#F6851B" fill-rule="evenodd"/>
<path d="m11.318 16.466 0.0188-0.5838-0.1569-0.1381h-2.3666l-0.14438 0.1381 0.01256 0.5838-1.9774-0.9354 0.69052 0.565 1.3999 0.973h2.4043l1.4062-0.973 0.6905-0.565-1.9774 0.9354z" fill="#C0AD9E"/>
<path d="m6.678 15.514c0.00848-0.0134 0.02562-0.0183 0.03996-0.0116l1.9315 0.9137-0.01147-0.5331c-1.9e-4 -0.0088 0.00333-0.0172 0.00969-0.0233l0.14438-0.1381c0.00584-0.0056 0.01361-0.0087 0.02169-0.0087h2.3666c0.0077 0 0.015 0.0027 0.0208 0.0078l0.1569 0.1381c7e-3 0.0062 0.0109 0.0152 0.0106 0.0246l-0.0171 0.5324 1.9309-0.9134c0.0143-0.0067 0.0315-0.0018 0.04 0.0116 0.0084 0.0134 0.0056 0.0311-0.0067 0.0411l-0.6905 0.565c-7e-4 5e-4 -0.0013 1e-3 -2e-3 0.0015l-1.4062 0.973c-0.0052 0.0036-0.0115 0.0056-0.0178 0.0056h-2.4043c-0.0064 0-0.01265-2e-3 -0.01791-0.0056l-1.3999-0.973c-6.7e-4 -5e-4 -0.00133-1e-3 -0.00196-0.0015l-0.69052-0.565c-0.01227-0.01-0.01513-0.0277-0.00666-0.0411zm0.24462 0.1547 0.49136 0.402 1.3908 0.9667h2.3847l1.397-0.9667 0.4913-0.402-1.7459 0.8258c-0.0098 0.0047-0.0214 0.0039-0.0306-0.0021-0.0091-6e-3 -0.0145-0.0163-0.0141-0.0273l0.0183-0.569-0.1369-0.1205h-2.3422l-0.1253 0.1199 0.01226 0.57c2.3e-4 0.0109-0.00518 0.0211-0.01431 0.027-0.00912 0.0059-0.02066 0.0067-0.03049 2e-3l-1.7459-0.8258z" clip-rule="evenodd" fill="#C0AD9E" fill-rule="evenodd"/>
<path d="m11.168 14.495-0.3014-0.2071h-1.7388l-0.30132 0.2071-0.15694 1.3874 0.14438-0.1382h2.3666l0.157 0.1382-0.1695-1.3874z" fill="#161616"/>
<path d="m9.1098 14.262c0.00523-0.0036 0.01143-0.0055 0.01778-0.0055h1.7388c0.0064 0 0.0126 0.0019 0.0178 0.0055l0.3013 0.2072c0.0075 0.0051 0.0123 0.0131 0.0134 0.022l0.1695 1.3874c0.0016 0.0129-5e-3 0.0255-0.0165 0.0315-0.0115 0.0061-0.0256 0.0045-0.0354-0.0042l-0.148-0.1302h-2.3422l-0.13528 0.1294c-0.00955 0.0091-0.02379 0.0113-0.03563 0.0054s-0.01874-0.0185-0.01725-0.0316l0.15694-1.3874c0.00102-9e-3 0.00591-0.0172 0.0134-0.0223l0.30132-0.2072zm0.02753 0.0573-0.28149 0.1935-0.14558 1.287 0.08175-0.0782c0.00584-0.0056 0.01362-0.0087 0.0217-0.0087h2.3666c0.0076 0 0.015 0.0028 0.0207 0.0078l0.0951 0.0837-0.1578-1.2915-0.2816-0.1936h-1.7194z" clip-rule="evenodd" fill="#161616" fill-rule="evenodd"/>
<path d="m17.47 7.1689 0.5336-2.5612-0.7973-2.3792-6.0389 4.4821 2.3227 1.9648 3.2831 0.96045 0.7282-0.84745-0.3139-0.22599 0.5022-0.45826-0.3892-0.30132 0.5022-0.38292-0.3327-0.2511z" fill="#763D16"/>
<path d="m17.216 2.1986c0.0096 0.00301 0.0171 0.01044 0.0203 0.01997l0.7973 2.3792c0.0017 0.00527 0.0021 0.01092 9e-4 0.01637l-0.5295 2.5417 0.3168 0.23912c0.0079 0.00591 0.0125 0.01515 0.0125 0.02497 1e-4 0.00982-0.0045 0.01909-0.0123 0.02504l-0.4697 0.35815 0.3569 0.27632c0.0073 0.00567 0.0117 0.01429 0.0121 0.02355 4e-4 0.00925-0.0034 0.0182-0.0102 0.02445l-0.4736 0.43219 0.2825 0.20339c0.0071 0.00514 0.0118 0.01304 0.0128 0.02177s-0.0016 0.01749-0.0074 0.02416l-0.7282 0.84746c-8e-3 0.00935-0.0207 0.01313-0.0326 0.00967l-3.2831-0.96045c-0.0042-0.00123-0.0081-0.00333-0.0114-0.00616l-2.3227-1.9648c-0.0073-0.00619-0.0114-0.01538-0.0111-0.02496s5e-3 -0.01849 0.0127-0.02421l6.0389-4.4821c8e-3 -0.00599 0.0185-0.00776 0.0281-0.00474zm-5.9978 4.5137 2.2873 1.935 3.2573 0.95291 0.6927-0.80617-0.2861-0.206c-0.0077-0.00553-0.0124-0.01422-0.013-0.02366-5e-4 -0.00944 0.0032-0.01862 0.0102-0.025l0.4746-0.4331-0.3597-0.27847c-0.0077-0.00596-0.0122-0.01518-0.0121-0.02493 0-0.00975 0.0046-0.01893 0.0123-0.02484l0.4693-0.35784-0.2997-0.22618c-0.0097-0.00731-0.0143-0.01956-0.0118-0.03145l0.5319-2.5529-0.7808-2.3301-5.9724 4.4327z" clip-rule="evenodd" fill="#763D16" fill-rule="evenodd"/>
<path d="m1.9963 4.6077 0.53358 2.5612-0.33898 0.2511 0.5022 0.38292-0.38293 0.30132 0.5022 0.45826-0.31388 0.22599 0.72191 0.84745 3.2831-0.96045 2.3227-1.9648-6.0389-4.4821-0.79096 2.3792z" fill="#763D16"/>
<path d="m2.7778 2.1986c0.0096-0.00303 0.02007-0.00127 0.02815 0.00473l6.0389 4.4821c0.00769 0.00572 0.01236 0.01463 0.01266 0.02421 3.1e-4 0.00958-0.00378 0.01877-0.0111 0.02496l-2.3227 1.9648c-0.00335 0.00283-0.00725 0.00493-0.01146 0.00616l-3.2831 0.96045c-0.01188 0.00347-0.02468-3.5e-4 -0.03271-0.00977l-0.72191-0.84746c-0.00568-0.00667-0.00832-0.01542-0.00726-0.02413 0.00105-0.0087 0.0057-0.01657 0.01282-0.0217l0.28249-0.20339-0.47363-0.43219c-0.00681-0.00622-0.01055-0.01511-0.01021-0.02433 3.3e-4 -0.00922 0.00471-0.01782 0.01195-0.02352l0.35109-0.27626-0.46998-0.35836c-0.00785-0.00598-0.01242-0.01531-0.01235-0.02518 6e-5 -0.00987 0.00477-0.01913 0.0127-0.025l0.32284-0.23914-0.52949-2.5415c-0.00113-0.00542-8e-4 -0.01105 9.5e-4 -0.0163l0.79096-2.3792c0.00317-0.00955 0.01074-0.017 0.02034-0.02003zm0.02555 0.08097-0.77462 2.33 0.53186 2.5529c0.0025 0.01199-0.0022 0.02433-0.01204 0.03162l-0.30543 0.22624 0.46899 0.35761c0.00772 0.00588 0.01228 0.01501 0.01236 0.02472 7e-5 0.0097-0.00435 0.0189-0.01198 0.0249l-0.35383 0.27842 0.47485 0.4333c0.00698 0.00638 0.01072 0.01556 0.01018 0.025-5.5e-4 0.00944-0.00532 0.01813-0.013 0.02366l-0.28623 0.20609 0.68663 0.80605 3.2572-0.95288 2.2874-1.935-5.9723-4.4327z" clip-rule="evenodd" fill="#763D16" fill-rule="evenodd"/>
<path d="m16.774 9.636-3.2831-0.96045 0.9981 1.5004-1.4878 2.8876 1.9586-0.0251h2.919l-1.1048-3.4024z" fill="#F6851B"/>
<path d="m13.465 8.6568c0.0078-0.01062 0.0215-0.01523 0.0341-0.01152l3.2831 0.96045c0.01 0.00291 0.0179 0.01056 0.0211 0.02043l1.1048 3.4024c0.0031 0.0095 0.0015 0.02-0.0044 0.0281-6e-3 0.0081-0.0154 0.013-0.0254 0.013h-2.9191l-1.9581 0.0251c-0.011 1e-4 -0.0213-0.0055-0.0271-0.0149s-0.0063-0.0211-0.0012-0.0309l1.4793-2.8712-0.9879-1.485c-0.0073-0.01098-7e-3 -0.02536 8e-4 -0.03599zm0.0991 0.0729 0.9505 1.4287c0.0063 0.0094 0.0069 0.0216 0.0017 0.0317l-1.4638 2.8412 1.9067-0.0244h2.8759l-1.0864-3.3456-3.1846-0.93162z" clip-rule="evenodd" fill="#F6851B" fill-rule="evenodd"/>
<path d="m6.5033 8.6755-3.2831 0.96045-1.0923 3.4024h2.9127l1.9523 0.0251-1.4815-2.8876 0.99184-1.5004z" fill="#F6851B"/>
<path d="m6.5285 8.6568c0.00782 0.0106 0.00819 0.02495 9.3e-4 0.03594l-0.98172 1.485 1.4731 2.8714c0.00503 0.0097 0.00456 0.0215-0.00124 0.0308-0.0058 0.0094-0.01608 0.015-0.02709 0.0149l-1.9519-0.0251h-2.9128c-0.01002 0-0.01945-0.0048-0.02536-0.0129s-0.00759-0.0186-0.00452-0.0281l1.0923-3.4024c0.00318-0.00992 0.01107-0.01761 0.02107-0.02053l3.2831-0.96045c0.01265-0.0037 0.02625 8.9e-4 0.03407 0.01149zm-3.2836 1.0045-1.074 3.3456h2.8701l1.9002 0.0244-1.4577-2.8412c-0.00517-0.0101-0.00451-0.0222 0.00174-0.0317l0.94458-1.4288-3.1849 0.93171z" clip-rule="evenodd" fill="#F6851B" fill-rule="evenodd"/>
<path d="m10.961 10.333 0.2072-3.6221 0.9542-2.58h-4.2373l0.94162 2.58 0.21971 3.6221 0.07533 1.1425 0.00627 2.8123h1.7389l0.0125-2.8123 0.0816-1.1425z" fill="#F6851B"/>
<path d="m7.8589 4.1125c0.00587-0.0084 0.01547-0.0134 0.02572-0.0134h4.2372c0.0103 0 0.0199 0.00502 0.0258 0.01345s0.0072 0.01919 0.0037 0.02883l-0.9526 2.5756-0.2069 3.6174v5e-4l-0.0815 1.1414-0.0126 2.8113c0 0.0173-0.0141 0.0312-0.0313 0.0312h-1.7389c-0.01731 0-0.03135-0.014-0.03139-0.0313l-0.00628-2.8113-0.07526-1.1415-1e-5 -2e-4 -0.21943-3.6175-0.94006-2.5757c-0.00351-0.00963-0.0021-0.02036 0.00377-0.02875zm0.07059 0.04938 0.92623 2.5379c0.00104 0.00285 0.00166 0.00584 0.00185 0.00887l0.2197 3.622 1e-5 1e-4 0.07532 1.1424c4e-5 6e-4 6e-5 0.0013 7e-5 2e-3l0.0062 2.781h1.6763l0.0124-2.7811c0-7e-4 0-0.0014 1e-4 -0.0021l0.0816-1.142v-5e-4l0.2071-3.6216c2e-4 -0.00311 9e-4 -0.00617 0.0019-0.00909l0.9386-2.5378h-4.1474z" clip-rule="evenodd" fill="#F6851B" fill-rule="evenodd"/>
</svg>
