<svg width="20" height="20" viewBox="0 0 20 20" fill="none" xmlns="http://www.w3.org/2000/svg">
<path d="M10 20C15.5228 20 20 15.5228 20 10C20 4.47715 15.5228 0 10 0C4.47715 0 0 4.47715 0 10C0 15.5228 4.47715 20 10 20Z" fill="#FF4500"/>
<path d="M16.67 10.0001C16.6597 9.71864 16.5682 9.44614 16.4065 9.21549C16.2448 8.98483 16.0199 8.80587 15.7588 8.70017C15.4977 8.59446 15.2117 8.56654 14.9351 8.61976C14.6585 8.67298 14.4032 8.80508 14.2 9.00012C13.0624 8.22684 11.7252 7.79962 10.35 7.77012L11 4.65012L13.14 5.10012C13.1654 5.3366 13.2743 5.55627 13.4471 5.7197C13.6199 5.88313 13.8453 5.97962 14.0828 5.99184C14.3204 6.00406 14.5545 5.93122 14.7432 5.78639C14.9318 5.64155 15.0627 5.43422 15.1123 5.20159C15.1618 4.96897 15.1269 4.72629 15.0137 4.51713C14.9004 4.30796 14.7164 4.14599 14.4945 4.06031C14.2726 3.97462 14.0275 3.97082 13.803 4.0496C13.5786 4.12837 13.3896 4.28456 13.27 4.49012L10.82 4.00012C10.7799 3.99133 10.7385 3.99058 10.6981 3.99791C10.6578 4.00525 10.6193 4.02052 10.5848 4.04284C10.5504 4.06517 10.5208 4.0941 10.4976 4.12796C10.4745 4.16183 10.4583 4.19995 10.45 4.24012L9.70996 7.71012C8.31784 7.73111 6.96223 8.15865 5.80996 8.94012C5.6558 8.79507 5.47195 8.68528 5.27114 8.61835C5.07033 8.55142 4.85737 8.52895 4.64702 8.55251C4.43666 8.57606 4.23394 8.64508 4.05291 8.75476C3.87188 8.86445 3.71686 9.01219 3.59861 9.18774C3.48035 9.36329 3.40167 9.56246 3.36804 9.77144C3.3344 9.98042 3.34661 10.1942 3.40381 10.398C3.46102 10.6018 3.56185 10.7907 3.69932 10.9517C3.8368 11.1126 4.00762 11.2418 4.19996 11.3301C4.1887 11.4766 4.1887 11.6237 4.19996 11.7701C4.19996 14.0101 6.80996 15.8301 10.03 15.8301C13.25 15.8301 15.86 14.0101 15.86 11.7701C15.8712 11.6237 15.8712 11.4766 15.86 11.3301C16.1067 11.2075 16.3137 11.0175 16.4571 10.7821C16.6004 10.5468 16.6742 10.2757 16.67 10.0001V10.0001ZM6.66996 11.0001C6.66996 10.8023 6.72861 10.609 6.83849 10.4446C6.94837 10.2801 7.10455 10.1519 7.28728 10.0762C7.47001 10.0006 7.67107 9.98075 7.86505 10.0193C8.05903 10.0579 8.23722 10.1532 8.37707 10.293C8.51692 10.4329 8.61216 10.611 8.65075 10.805C8.68933 10.999 8.66953 11.2001 8.59384 11.3828C8.51815 11.5655 8.38998 11.7217 8.22553 11.8316C8.06108 11.9415 7.86774 12.0001 7.66996 12.0001C7.53864 12.0001 7.4086 11.9743 7.28728 11.924C7.16595 11.8737 7.05571 11.8001 6.96286 11.7072C6.87 11.6144 6.79634 11.5041 6.74608 11.3828C6.69583 11.2615 6.66996 11.1314 6.66996 11.0001V11.0001ZM12.48 13.7501C11.7705 14.2848 10.8976 14.5569 10.01 14.5201C9.12235 14.5569 8.24944 14.2848 7.53996 13.7501C7.49744 13.6983 7.47571 13.6325 7.479 13.5656C7.48228 13.4986 7.51036 13.4353 7.55775 13.3879C7.60515 13.3405 7.66848 13.3124 7.73543 13.3092C7.80237 13.3059 7.86815 13.3276 7.91996 13.3701C8.52119 13.8111 9.25508 14.0334 9.99996 14.0001C10.7458 14.0407 11.4831 13.8255 12.09 13.3901C12.143 13.3384 12.2144 13.3099 12.2885 13.3108C12.3252 13.3113 12.3614 13.319 12.3951 13.3334C12.4288 13.3479 12.4594 13.3689 12.485 13.3951C12.5106 13.4214 12.5308 13.4524 12.5444 13.4865C12.558 13.5206 12.5647 13.557 12.5643 13.5937C12.5638 13.6303 12.5561 13.6666 12.5417 13.7003C12.5272 13.734 12.5062 13.7645 12.48 13.7901V13.7501ZM12.3 12.0401C12.1022 12.0401 11.9088 11.9815 11.7444 11.8716C11.5799 11.7617 11.4518 11.6055 11.3761 11.4228C11.3004 11.2401 11.2806 11.039 11.3192 10.845C11.3578 10.651 11.453 10.4729 11.5929 10.333C11.7327 10.1932 11.9109 10.0979 12.1049 10.0593C12.2989 10.0208 12.4999 10.0406 12.6826 10.1162C12.8654 10.1919 13.0216 10.3201 13.1314 10.4845C13.2413 10.649 13.3 10.8423 13.3 11.0401C13.3054 11.1756 13.2832 11.3108 13.2348 11.4375C13.1863 11.5641 13.1126 11.6796 13.0181 11.7769C12.9237 11.8741 12.8104 11.9512 12.6852 12.0033C12.56 12.0555 12.4256 12.0816 12.29 12.0801L12.3 12.0401Z" fill="white"/>
</svg>
