<svg width="20" height="20" viewBox="0 0 20 20" fill="none" xmlns="http://www.w3.org/2000/svg">
<path d="M10 20C15.5228 20 20 15.5228 20 10C20 4.47715 15.5228 0 10 0C4.47715 0 0 4.47715 0 10C0 15.5228 4.47715 20 10 20Z" fill="url(#paint0_linear_1534_14600)"/>
<path fill-rule="evenodd" clip-rule="evenodd" d="M4.52131 9.89158C7.43554 8.62596 9.3756 7.785 10.3498 7.377C13.1225 6.21963 13.7053 6.0198 14.08 6.01147C14.1633 6.01147 14.3465 6.02813 14.4713 6.12804C14.5713 6.21131 14.5962 6.31955 14.6129 6.40282C14.6295 6.48608 14.6462 6.66093 14.6295 6.79416C14.4797 8.37617 13.8302 12.2146 13.4972 13.9798C13.3556 14.7292 13.0808 14.979 12.8144 15.004C12.2315 15.0539 11.7902 14.621 11.2324 14.2546C10.3498 13.6801 9.85853 13.322 9.00091 12.7559C8.01007 12.1064 8.6512 11.7484 9.21739 11.1655C9.36727 11.0156 11.9235 8.68425 11.9734 8.47609C11.9818 8.45111 11.9818 8.35119 11.9235 8.30123C11.8652 8.25127 11.7819 8.26793 11.7153 8.28458C11.6237 8.30123 10.2249 9.23379 7.50216 11.0739C7.10249 11.3487 6.74445 11.4819 6.41972 11.4736C6.06169 11.4653 5.37893 11.2738 4.86269 11.1072C4.23821 10.9074 3.73863 10.7992 3.78026 10.4494C3.80524 10.2663 4.05503 10.0831 4.52131 9.89158Z" fill="white"/>
<defs>
<linearGradient id="paint0_linear_1534_14600" x1="9.99167" y1="0" x2="9.99167" y2="19.8418" gradientUnits="userSpaceOnUse">
<stop stop-color="#2AABEE"/>
<stop offset="1" stop-color="#229ED9"/>
</linearGradient>
</defs>
</svg>
