<svg width="20" height="20" viewBox="0 0 20 20" fill="none" xmlns="http://www.w3.org/2000/svg">
<g clip-path="url(#clip0_1534_14603)">
<path d="M10.0002 19.9998C15.523 19.9998 20.0001 15.5227 20.0001 9.99991C20.0001 4.47711 15.523 0 10.0002 0C4.47736 0 0.000244141 4.47711 0.000244141 9.99991C0.000244141 15.5227 4.47736 19.9998 10.0002 19.9998Z" fill="#1D9BF0"/>
<path d="M16.1254 7.18656C15.6969 7.37658 15.2359 7.50511 14.7525 7.56251C15.2461 7.26678 15.6249 6.79885 15.8037 6.24037C15.3418 6.51435 14.83 6.71311 14.2858 6.82024C13.8498 6.35588 13.2286 6.06567 12.5407 6.06567C11.2208 6.06567 10.1504 7.13611 10.1504 8.45593C10.1504 8.64328 10.1716 8.82564 10.2126 9.00069C8.22611 8.90104 6.46475 7.9495 5.28575 6.50294C5.08004 6.85589 4.96203 7.26678 4.96203 7.70476C4.96203 8.53383 5.38432 9.26576 6.02534 9.69429C5.63371 9.68199 5.26489 9.5745 4.94278 9.395C4.9426 9.40516 4.9426 9.41532 4.9426 9.4253C4.9426 10.5834 5.76687 11.5494 6.86012 11.7689C6.65976 11.8238 6.44817 11.8528 6.23052 11.8528C6.07614 11.8528 5.92659 11.838 5.78077 11.8102C6.08488 12.7596 6.96743 13.4507 8.01363 13.4702C7.19543 14.1113 6.16492 14.4933 5.04474 14.4933C4.85223 14.4933 4.66149 14.4821 4.47485 14.4598C5.5321 15.1383 6.78882 15.5338 8.13859 15.5338C12.5351 15.5338 14.9395 11.8917 14.9395 8.73277C14.9395 8.6292 14.9372 8.52599 14.9325 8.42367C15.3999 8.08676 15.8051 7.6659 16.1254 7.18656Z" fill="white"/>
</g>
<defs>
<clipPath id="clip0_1534_14603">
<rect width="20" height="20" fill="white"/>
</clipPath>
</defs>
</svg>
