<svg width="20" height="20" viewBox="0 0 20 20" fill="none" xmlns="http://www.w3.org/2000/svg">
<path d="M0 19.9994L1.41562 14.8614C0.543309 13.3562 0.0841292 11.649 0.0842116 9.91125C0.0842116 4.44941 4.55174 0 10.0366 0C12.7006 0 15.1962 1.03446 17.0839 2.90323C18.0105 3.82179 18.7453 4.91399 19.2458 6.11682C19.7463 7.31964 20.0026 8.60926 20 9.91125C20 15.3731 15.5318 19.8219 10.047 19.8219C8.37937 19.8219 6.7437 19.4044 5.28567 18.6105L0 20V19.9994Z" fill="url(#paint0_linear_1534_14654)"/>
<path fill-rule="evenodd" clip-rule="evenodd" d="M7.46722 5.60895C7.27851 5.18048 7.0689 5.17007 6.89064 5.17007C6.73328 5.15967 6.56486 5.15967 6.3866 5.15967C6.21941 5.15967 5.93604 5.2221 5.69447 5.48347C5.45351 5.74423 4.79272 6.36062 4.79272 7.62401C4.79272 8.88801 5.71598 10.1098 5.84138 10.2769C5.96739 10.444 7.62396 13.1171 10.2462 14.1515C12.4283 15.0079 12.8684 14.8408 13.3399 14.7881C13.812 14.7361 14.8606 14.1723 15.0813 13.5664C15.2903 12.9714 15.2903 12.4493 15.2282 12.3446C15.1649 12.2405 14.9866 12.1775 14.7352 12.0416C14.4728 11.9167 13.2145 11.2899 12.9729 11.2061C12.732 11.1228 12.5642 11.0812 12.3964 11.3315C12.2286 11.5929 11.7356 12.1671 11.5788 12.3342C11.4313 12.5013 11.274 12.5221 11.0225 12.3966C10.7601 12.2717 9.93149 12 8.94615 11.1228C8.18025 10.4434 7.66637 9.59806 7.50901 9.34771C7.3621 9.08634 7.48812 8.95045 7.62458 8.82497C7.74014 8.7105 7.88643 8.52259 8.01244 8.37629C8.13845 8.22939 8.18025 8.11492 8.27491 7.94782C8.35851 7.78071 8.31671 7.62401 8.25401 7.49914C8.1907 7.38407 7.69772 6.12006 7.46722 5.60834V5.60895Z" fill="white"/>
<defs>
<linearGradient id="paint0_linear_1534_14654" x1="9.99784" y1="19.9982" x2="9.99784" y2="-0.00367318" gradientUnits="userSpaceOnUse">
<stop stop-color="#20B038"/>
<stop offset="1" stop-color="#60D66A"/>
</linearGradient>
</defs>
</svg>
